<svg width="50" height="72" viewBox="0 0 50 72" fill="none" xmlns="http://www.w3.org/2000/svg">
<path fill-rule="evenodd" clip-rule="evenodd" d="M42 0.647583V0L41.4358 0.147583H5.5C2.4624 0.147583 0 2.61002 0 5.64758V58.6476C0 61.6852 2.4624 64.1476 5.5 64.1476H8.5V70.6476V71.6476H9.5H44.5C47.2615 71.6476 49.5 69.409 49.5 66.6476V13.6476C49.5 10.8862 47.2615 8.64758 44.5 8.64758H42V0.647583ZM41 8.64758V1.29517L12.8877 8.64758H41ZM8.93579 8.64758L37.6123 1.14758H5.5C3.01465 1.14758 1 3.16229 1 5.64758V58.6476C1 61.1329 3.01465 63.1476 5.5 63.1476H8.5V9.64758V8.64758H8.93579ZM9.5 70.6476V64.1476V63.1476V9.64758H44.5C46.7092 9.64758 48.5 11.4384 48.5 13.6476V66.6476C48.5 68.8567 46.7092 70.6476 44.5 70.6476H9.5Z" transform="translate(0.5 0.352417)" fill="black"/>
</svg>
