<svg width="53" height="70" viewBox="0 0 53 70" fill="none" xmlns="http://www.w3.org/2000/svg">
<path fill-rule="evenodd" clip-rule="evenodd" d="M11.4207 1.02361L47.2119 4.89433C49.4082 5.13185 50.9961 7.10489 50.7585 9.30122L44.7686 64.6907C44.531 66.8871 42.5579 68.475 40.3616 68.2375L4.57031 64.3667C2.37402 64.1292 0.785889 62.1562 1.02344 59.9599L7.01367 4.57034C7.25122 2.37401 9.22437 0.786087 11.4207 1.02361ZM6.01953 4.46281C6.31641 1.71741 8.78271 -0.267502 11.5281 0.0294037L47.3193 3.90013C50.0649 4.19704 52.0498 6.66333 51.7529 9.40874L45.7627 64.7982C45.4658 67.5437 42.9995 69.5286 40.2542 69.2317L4.46265 65.3609C1.71729 65.064 -0.267578 62.5977 0.0292969 59.8523L6.01953 4.46281ZM21.9675 35.2466L24.833 35.5628L25.2585 37.8498L26.3533 37.9706L24.5518 29.1888L23.6375 29.0879L19.9702 37.2663L21.0652 37.3871L21.9675 35.2466ZM24.6606 34.6124L22.3486 34.3573L23.9272 30.629L24.6606 34.6124ZM29.3062 38.2965L30.3428 38.4109L31.283 29.8903L31.1199 29.8723L28.3364 30.7383L28.2283 31.7167L30.0986 31.1154L29.3062 38.2965Z" transform="translate(0.508301 0.508194)" fill="black"/>
</svg>
