<svg width="70" height="70" viewBox="0 0 70 70" fill="none" xmlns="http://www.w3.org/2000/svg">
<path fill-rule="evenodd" clip-rule="evenodd" d="M65 1H21.1323C32.9854 2.43341 42.1592 5.21913 49.2065 10H49.5V10.2011C51.2615 11.4203 52.8884 12.7668 54.3896 14.251C55.9985 15.8418 57.46 17.5877 58.7864 19.5H59V19.811C64.1743 27.4252 67.2559 37.6379 69 51.1399V5C69 2.79086 67.2092 1 65 1ZM57.5615 19.5C56.3772 17.8576 55.0884 16.348 53.6865 14.9621C52.3916 13.682 50.9985 12.5052 49.5 11.4255V19.5H57.5615ZM48.5 10.7298V20V20.5H49H58.2585C64.4065 29.6238 67.5696 42.6483 69 61.0199V65C69 67.2091 67.2092 69 65 69H5C2.79077 69 1 67.2091 1 65V5C1 2.79086 2.79077 1 5 1H8.48877C26.5325 1.80823 39.3801 4.60536 48.5 10.7298ZM5 0C2.23853 0 0 2.23857 0 5V65C0 67.7614 2.23853 70 5 70H65C67.7615 70 70 67.7614 70 65V5C70 2.23857 67.7615 0 65 0H5Z" fill="black"/>
</svg>
