<svg width="69" height="69" viewBox="0 0 69 69" fill="none" xmlns="http://www.w3.org/2000/svg">
<path fill-rule="evenodd" clip-rule="evenodd" d="M68 1H1V68H68V1ZM1 0H0V1V68V69H1H68H69V68V1V0H68H1ZM6 4C6 5.10457 5.10449 6 4 6C2.89551 6 2 5.10457 2 4C2 2.89543 2.89551 2 4 2C5.10449 2 6 2.89543 6 4ZM34 6C35.1045 6 36 5.10457 36 4C36 2.89543 35.1045 2 34 2C32.8955 2 32 2.89543 32 4C32 5.10457 32.8955 6 34 6ZM67 4C67 5.10457 66.1045 6 65 6C63.8955 6 63 5.10457 63 4C63 2.89543 63.8955 2 65 2C66.1045 2 67 2.89543 67 4ZM65 67C66.1045 67 67 66.1046 67 65C67 63.8954 66.1045 63 65 63C63.8955 63 63 63.8954 63 65C63 66.1046 63.8955 67 65 67ZM36 65C36 66.1046 35.1045 67 34 67C32.8955 67 32 66.1046 32 65C32 63.8954 32.8955 63 34 63C35.1045 63 36 63.8954 36 65ZM4 67C5.10449 67 6 66.1046 6 65C6 63.8954 5.10449 63 4 63C2.89551 63 2 63.8954 2 65C2 66.1046 2.89551 67 4 67Z" fill="black"/>
</svg>
