<svg width="65" height="41" viewBox="0 0 65 41" fill="none" xmlns="http://www.w3.org/2000/svg">
<rect x="0.5" y="0.5" width="53" height="29" rx="1.5" transform="translate(11.3406) rotate(8.31891)" fill="white" stroke="black"/>
<rect x="0.5" y="0.5" width="53" height="29" rx="1.5" transform="translate(0 11)" fill="white" stroke="black"/>
<path d="M4.0957 7.35547C3.68164 7.88281 3.19727 8.14648 2.64258 8.14648C2.02148 8.14648 1.52734 7.88477 1.16016 7.36133C0.792969 6.83789 0.609375 6.15234 0.609375 5.30469C0.609375 4.41406 0.808594 3.69922 1.20703 3.16016C1.60938 2.62109 2.15625 2.35156 2.84766 2.35156C3.56641 2.35156 4.12695 2.66406 4.5293 3.28906C4.93555 3.91016 5.13867 4.77148 5.13867 5.87305V6.19531C5.13867 7.14062 5.06641 7.90625 4.92188 8.49219C4.78125 9.07812 4.57227 9.55078 4.29492 9.91016C4.01758 10.2695 3.66406 10.543 3.23438 10.7305C2.80469 10.9141 2.26758 11.0059 1.62305 11.0059V10.0918H1.80469C2.53906 10.0762 3.0957 9.85352 3.47461 9.42383C3.85742 8.99023 4.06445 8.30078 4.0957 7.35547ZM2.81836 7.25C3.06836 7.25 3.3125 7.14648 3.55078 6.93945C3.78906 6.72852 3.97461 6.45312 4.10742 6.11328V5.65625C4.10742 4.94922 3.98438 4.37305 3.73828 3.92773C3.49219 3.47852 3.19531 3.25391 2.84766 3.25391C2.47266 3.25391 2.17383 3.43945 1.95117 3.81055C1.73242 4.17773 1.62305 4.65625 1.62305 5.24609C1.62305 5.83594 1.73047 6.31836 1.94531 6.69336C2.16016 7.06445 2.45117 7.25 2.81836 7.25ZM11.1738 7.36133C11.1738 8.61914 10.9902 9.56055 10.623 10.1855C10.2559 10.8066 9.67969 11.1172 8.89453 11.1172C8.13281 11.1172 7.56445 10.8184 7.18945 10.2207C6.81445 9.62305 6.61914 8.72461 6.60352 7.52539V6.06055C6.60352 4.81445 6.78711 3.88477 7.1543 3.27148C7.52539 2.6582 8.10156 2.35156 8.88281 2.35156C9.65234 2.35156 10.2207 2.64258 10.5879 3.22461C10.959 3.80664 11.1543 4.6875 11.1738 5.86719V7.36133ZM10.1367 5.87891C10.1367 4.97656 10.0371 4.3125 9.83789 3.88672C9.63867 3.45703 9.32031 3.24219 8.88281 3.24219C8.45703 3.24219 8.14453 3.45312 7.94531 3.875C7.74609 4.29297 7.64258 4.92578 7.63477 5.77344V7.53125C7.63477 8.42969 7.73828 9.10547 7.94531 9.55859C8.15234 10.0078 8.46875 10.2324 8.89453 10.2324C9.31641 10.2324 9.62695 10.0195 9.82617 9.59375C10.0254 9.16797 10.1289 8.51758 10.1367 7.64258V5.87891ZM14.4668 6.97461L15.5508 4.66016H16.752L15.0293 7.79492L16.793 11H15.6035L14.4844 8.62695L13.3594 11H12.1641L13.9277 7.79492L12.2109 4.66016H13.4004L14.4668 6.97461ZM18.2402 6.72266L18.6094 2.46875H22.3184V3.4707H19.4824L19.2832 5.79688C19.6348 5.55078 20.0137 5.42773 20.4199 5.42773C21.084 5.42773 21.6055 5.68555 21.9844 6.20117C22.3633 6.7168 22.5527 7.41016 22.5527 8.28125C22.5527 9.16406 22.3457 9.85742 21.9316 10.3613C21.5215 10.8652 20.957 11.1172 20.2383 11.1172C19.5977 11.1172 19.0762 10.9082 18.6738 10.4902C18.2715 10.0723 18.041 9.49414 17.9824 8.75586H18.9551C19.0137 9.24414 19.1523 9.61328 19.3711 9.86328C19.5938 10.1094 19.8828 10.2324 20.2383 10.2324C20.6406 10.2324 20.9551 10.0586 21.1816 9.71094C21.4082 9.35938 21.5215 8.88672 21.5215 8.29297C21.5215 7.73438 21.3984 7.2793 21.1523 6.92773C20.9102 6.57617 20.582 6.40039 20.168 6.40039C19.8242 6.40039 19.5488 6.49023 19.3418 6.66992L19.0664 6.94531L18.2402 6.72266ZM28.3066 7.36133C28.3066 8.61914 28.123 9.56055 27.7559 10.1855C27.3887 10.8066 26.8125 11.1172 26.0273 11.1172C25.2656 11.1172 24.6973 10.8184 24.3223 10.2207C23.9473 9.62305 23.752 8.72461 23.7363 7.52539V6.06055C23.7363 4.81445 23.9199 3.88477 24.2871 3.27148C24.6582 2.6582 25.2344 2.35156 26.0156 2.35156C26.7852 2.35156 27.3535 2.64258 27.7207 3.22461C28.0918 3.80664 28.2871 4.6875 28.3066 5.86719V7.36133ZM27.2695 5.87891C27.2695 4.97656 27.1699 4.3125 26.9707 3.88672C26.7715 3.45703 26.4531 3.24219 26.0156 3.24219C25.5898 3.24219 25.2773 3.45312 25.0781 3.875C24.8789 4.29297 24.7754 4.92578 24.7676 5.77344V7.53125C24.7676 8.42969 24.8711 9.10547 25.0781 9.55859C25.2852 10.0078 25.6016 10.2324 26.0273 10.2324C26.4492 10.2324 26.7598 10.0195 26.959 9.59375C27.1582 9.16797 27.2617 8.51758 27.2695 7.64258V5.87891Z" transform="translate(11 20)" fill="black"/>
</svg>
