<svg version="1.0" xmlns="http://www.w3.org/2000/svg">

    <symbol id="ico1" viewBox="0 0 65 41">
        <rect x="0.5" y="0.5" width="53" height="29" rx="1.5" transform="translate(11.3406) rotate(8.31891)" fill="white" stroke="black"/>
        <rect x="0.5" y="0.5" width="53" height="29" rx="1.5" transform="translate(0 11)" fill="white" stroke="black"/>
        <path d="M4.0957 7.35547C3.68164 7.88281 3.19727 8.14648 2.64258 8.14648C2.02148 8.14648 1.52734 7.88477 1.16016 7.36133C0.792969 6.83789 0.609375 6.15234 0.609375 5.30469C0.609375 4.41406 0.808594 3.69922 1.20703 3.16016C1.60938 2.62109 2.15625 2.35156 2.84766 2.35156C3.56641 2.35156 4.12695 2.66406 4.5293 3.28906C4.93555 3.91016 5.13867 4.77148 5.13867 5.87305V6.19531C5.13867 7.14062 5.06641 7.90625 4.92188 8.49219C4.78125 9.07812 4.57227 9.55078 4.29492 9.91016C4.01758 10.2695 3.66406 10.543 3.23438 10.7305C2.80469 10.9141 2.26758 11.0059 1.62305 11.0059V10.0918H1.80469C2.53906 10.0762 3.0957 9.85352 3.47461 9.42383C3.85742 8.99023 4.06445 8.30078 4.0957 7.35547ZM2.81836 7.25C3.06836 7.25 3.3125 7.14648 3.55078 6.93945C3.78906 6.72852 3.97461 6.45312 4.10742 6.11328V5.65625C4.10742 4.94922 3.98438 4.37305 3.73828 3.92773C3.49219 3.47852 3.19531 3.25391 2.84766 3.25391C2.47266 3.25391 2.17383 3.43945 1.95117 3.81055C1.73242 4.17773 1.62305 4.65625 1.62305 5.24609C1.62305 5.83594 1.73047 6.31836 1.94531 6.69336C2.16016 7.06445 2.45117 7.25 2.81836 7.25ZM11.1738 7.36133C11.1738 8.61914 10.9902 9.56055 10.623 10.1855C10.2559 10.8066 9.67969 11.1172 8.89453 11.1172C8.13281 11.1172 7.56445 10.8184 7.18945 10.2207C6.81445 9.62305 6.61914 8.72461 6.60352 7.52539V6.06055C6.60352 4.81445 6.78711 3.88477 7.1543 3.27148C7.52539 2.6582 8.10156 2.35156 8.88281 2.35156C9.65234 2.35156 10.2207 2.64258 10.5879 3.22461C10.959 3.80664 11.1543 4.6875 11.1738 5.86719V7.36133ZM10.1367 5.87891C10.1367 4.97656 10.0371 4.3125 9.83789 3.88672C9.63867 3.45703 9.32031 3.24219 8.88281 3.24219C8.45703 3.24219 8.14453 3.45312 7.94531 3.875C7.74609 4.29297 7.64258 4.92578 7.63477 5.77344V7.53125C7.63477 8.42969 7.73828 9.10547 7.94531 9.55859C8.15234 10.0078 8.46875 10.2324 8.89453 10.2324C9.31641 10.2324 9.62695 10.0195 9.82617 9.59375C10.0254 9.16797 10.1289 8.51758 10.1367 7.64258V5.87891ZM14.4668 6.97461L15.5508 4.66016H16.752L15.0293 7.79492L16.793 11H15.6035L14.4844 8.62695L13.3594 11H12.1641L13.9277 7.79492L12.2109 4.66016H13.4004L14.4668 6.97461ZM18.2402 6.72266L18.6094 2.46875H22.3184V3.4707H19.4824L19.2832 5.79688C19.6348 5.55078 20.0137 5.42773 20.4199 5.42773C21.084 5.42773 21.6055 5.68555 21.9844 6.20117C22.3633 6.7168 22.5527 7.41016 22.5527 8.28125C22.5527 9.16406 22.3457 9.85742 21.9316 10.3613C21.5215 10.8652 20.957 11.1172 20.2383 11.1172C19.5977 11.1172 19.0762 10.9082 18.6738 10.4902C18.2715 10.0723 18.041 9.49414 17.9824 8.75586H18.9551C19.0137 9.24414 19.1523 9.61328 19.3711 9.86328C19.5938 10.1094 19.8828 10.2324 20.2383 10.2324C20.6406 10.2324 20.9551 10.0586 21.1816 9.71094C21.4082 9.35938 21.5215 8.88672 21.5215 8.29297C21.5215 7.73438 21.3984 7.2793 21.1523 6.92773C20.9102 6.57617 20.582 6.40039 20.168 6.40039C19.8242 6.40039 19.5488 6.49023 19.3418 6.66992L19.0664 6.94531L18.2402 6.72266ZM28.3066 7.36133C28.3066 8.61914 28.123 9.56055 27.7559 10.1855C27.3887 10.8066 26.8125 11.1172 26.0273 11.1172C25.2656 11.1172 24.6973 10.8184 24.3223 10.2207C23.9473 9.62305 23.752 8.72461 23.7363 7.52539V6.06055C23.7363 4.81445 23.9199 3.88477 24.2871 3.27148C24.6582 2.6582 25.2344 2.35156 26.0156 2.35156C26.7852 2.35156 27.3535 2.64258 27.7207 3.22461C28.0918 3.80664 28.2871 4.6875 28.3066 5.86719V7.36133ZM27.2695 5.87891C27.2695 4.97656 27.1699 4.3125 26.9707 3.88672C26.7715 3.45703 26.4531 3.24219 26.0156 3.24219C25.5898 3.24219 25.2773 3.45312 25.0781 3.875C24.8789 4.29297 24.7754 4.92578 24.7676 5.77344V7.53125C24.7676 8.42969 24.8711 9.10547 25.0781 9.55859C25.2852 10.0078 25.6016 10.2324 26.0273 10.2324C26.4492 10.2324 26.7598 10.0195 26.959 9.59375C27.1582 9.16797 27.2617 8.51758 27.2695 7.64258V5.87891Z" transform="translate(11 20)" fill="black"/>
    </symbol>

    <symbol id="ico2" viewBox="0 0 47 68">
        <path fill-rule="evenodd" clip-rule="evenodd" d="M1 1H25V59H1V1ZM0 0H1H25H26V1V3.44293L46.468 7.18942L46.96 7.27945L46.8699 7.77127L36.0671 66.7907L35.9771 67.2826L35.4851 67.1926L9.91016 62.5113L9.41821 62.4213L9.5083 61.9294L9.86157 60H1H0V59V1V0ZM10.8782 60L10.582 61.6177L35.1733 66.1189L45.7961 8.08305L26 4.45958V59V60H25H10.8782Z"/>
    </symbol>

    <symbol id="ico3" viewBox="0 0 50 72">
        <path fill-rule="evenodd" clip-rule="evenodd" d="M42 0.647583V0L41.4358 0.147583H5.5C2.4624 0.147583 0 2.61002 0 5.64758V58.6476C0 61.6852 2.4624 64.1476 5.5 64.1476H8.5V70.6476V71.6476H9.5H44.5C47.2615 71.6476 49.5 69.409 49.5 66.6476V13.6476C49.5 10.8862 47.2615 8.64758 44.5 8.64758H42V0.647583ZM41 8.64758V1.29517L12.8877 8.64758H41ZM8.93579 8.64758L37.6123 1.14758H5.5C3.01465 1.14758 1 3.16229 1 5.64758V58.6476C1 61.1329 3.01465 63.1476 5.5 63.1476H8.5V9.64758V8.64758H8.93579ZM9.5 70.6476V64.1476V63.1476V9.64758H44.5C46.7092 9.64758 48.5 11.4384 48.5 13.6476V66.6476C48.5 68.8567 46.7092 70.6476 44.5 70.6476H9.5Z" transform="translate(0.5 0.352417)"/>
    </symbol>

    <symbol id="ico4" viewBox="0 0 53 70">
        <path fill-rule="evenodd" clip-rule="evenodd" d="M11.4207 1.02361L47.2119 4.89433C49.4082 5.13185 50.9961 7.10489 50.7585 9.30122L44.7686 64.6907C44.531 66.8871 42.5579 68.475 40.3616 68.2375L4.57031 64.3667C2.37402 64.1292 0.785889 62.1562 1.02344 59.9599L7.01367 4.57034C7.25122 2.37401 9.22437 0.786087 11.4207 1.02361ZM6.01953 4.46281C6.31641 1.71741 8.78271 -0.267502 11.5281 0.0294037L47.3193 3.90013C50.0649 4.19704 52.0498 6.66333 51.7529 9.40874L45.7627 64.7982C45.4658 67.5437 42.9995 69.5286 40.2542 69.2317L4.46265 65.3609C1.71729 65.064 -0.267578 62.5977 0.0292969 59.8523L6.01953 4.46281ZM21.9675 35.2466L24.833 35.5628L25.2585 37.8498L26.3533 37.9706L24.5518 29.1888L23.6375 29.0879L19.9702 37.2663L21.0652 37.3871L21.9675 35.2466ZM24.6606 34.6124L22.3486 34.3573L23.9272 30.629L24.6606 34.6124ZM29.3062 38.2965L30.3428 38.4109L31.283 29.8903L31.1199 29.8723L28.3364 30.7383L28.2283 31.7167L30.0986 31.1154L29.3062 38.2965Z" transform="translate(0.508301 0.508194)"/>
    </symbol>

    <symbol id="ico5" viewBox="0 0 69 69">
        <path fill-rule="evenodd" clip-rule="evenodd" d="M68 1H1V68H68V1ZM1 0H0V1V68V69H1H68H69V68V1V0H68H1ZM6 4C6 5.10457 5.10449 6 4 6C2.89551 6 2 5.10457 2 4C2 2.89543 2.89551 2 4 2C5.10449 2 6 2.89543 6 4ZM34 6C35.1045 6 36 5.10457 36 4C36 2.89543 35.1045 2 34 2C32.8955 2 32 2.89543 32 4C32 5.10457 32.8955 6 34 6ZM67 4C67 5.10457 66.1045 6 65 6C63.8955 6 63 5.10457 63 4C63 2.89543 63.8955 2 65 2C66.1045 2 67 2.89543 67 4ZM65 67C66.1045 67 67 66.1046 67 65C67 63.8954 66.1045 63 65 63C63.8955 63 63 63.8954 63 65C63 66.1046 63.8955 67 65 67ZM36 65C36 66.1046 35.1045 67 34 67C32.8955 67 32 66.1046 32 65C32 63.8954 32.8955 63 34 63C35.1045 63 36 63.8954 36 65ZM4 67C5.10449 67 6 66.1046 6 65C6 63.8954 5.10449 63 4 63C2.89551 63 2 63.8954 2 65C2 66.1046 2.89551 67 4 67Z"/>
    </symbol>

    <symbol id="ico6" viewBox="0 0 70 70">
        <path fill-rule="evenodd" clip-rule="evenodd" d="M65 1H21.1323C32.9854 2.43341 42.1592 5.21913 49.2065 10H49.5V10.2011C51.2615 11.4203 52.8884 12.7668 54.3896 14.251C55.9985 15.8418 57.46 17.5877 58.7864 19.5H59V19.811C64.1743 27.4252 67.2559 37.6379 69 51.1399V5C69 2.79086 67.2092 1 65 1ZM57.5615 19.5C56.3772 17.8576 55.0884 16.348 53.6865 14.9621C52.3916 13.682 50.9985 12.5052 49.5 11.4255V19.5H57.5615ZM48.5 10.7298V20V20.5H49H58.2585C64.4065 29.6238 67.5696 42.6483 69 61.0199V65C69 67.2091 67.2092 69 65 69H5C2.79077 69 1 67.2091 1 65V5C1 2.79086 2.79077 1 5 1H8.48877C26.5325 1.80823 39.3801 4.60536 48.5 10.7298ZM5 0C2.23853 0 0 2.23857 0 5V65C0 67.7614 2.23853 70 5 70H65C67.7615 70 70 67.7614 70 65V5C70 2.23857 67.7615 0 65 0H5Z"/>
    </symbol>

</svg>